# xmcd CD database file
#
# Track frame offsets:
#	150
#	16895
#	29845
#	48972
#	64255
#	73520
#	89487
#	101520
#	116560
#	131965
#
# Disc length: 1964 seconds
#
# Revision: 2
# Processed by: cddbd v1.4b41PL1 Copyright (c) Steve Scherf et al.
# Submitted via: Feurio! 1.52 - http://www.feurio.com
#
DISCID=8e07aa0a
DTITLE=Barry Goldberg - The Barry Goldberg Reunion
DYEAR=1900
DGENRE=
TTITLE0=Sittin´ In Circles
TTITLE1=Hole In My Pocket
TTITLE2=It Hurts Me Too
TTITLE3=Fool On A Hill
TTITLE4=Carpicorn Blues
TTITLE5=Another Day
TTITLE6=Sugar Coated
TTITLE7=Strung And Young
TTITLE8=I Thing I´m Gonna Cry
TTITLE9=The Answers In Your Head
EXTD=
EXTT0=
EXTT1=
EXTT2=
EXTT3=
EXTT4=
EXTT5=
EXTT6=
EXTT7=
EXTT8=
EXTT9=
PLAYORDER=
